- - -
Synopsis
- - -

Around the world, a new generation of astronomers are hunting for the most mysterious objects in the universe. Young stars, black holes, even other forms of life.

They have created a dazzling new set of super-telescopes that promise to rewrite the story of the heavens.

This film follows the men and women who are pushing the limits of science and engineering in some of the most extreme environments on earth. But most strikingly of all, no-one really knows what they will find out there.


- - -
URL
- - -
   
http://www.bbc.co.uk/programmes/b013pnv4


- - -
Technical Details
- - -General
Complete name                    : BBC.Horizon.2011.2012.S48E02.Seeing.Stars/Horizon_-_2011-2012_2._Seeing_Stars_b013pnv4_default.mp4
Format                           : MPEG-4
Format profile                   : Base Media
Codec ID                         : isom
File size                        : 1.06 GiB
Duration                         : 59mn 15s
Overall bit rate                 : 2 557 Kbps
Movie name                       : Horizon: 2011-2012: Seeing Stars
Album                            : Horizon
Track name/Position              : 2
Track name/Total                 : 0
Performer                        : Horizon
Genre                            : Factual,Science & Nature
Recorded date                    : 2011-08-15T21:00:00+01:00
Writing application              : Lavf53.6.0
Cover                            : Yes
Comment                          : Recorded using get_iplayer, by Aularon.
rtng                             : 2
stik                             : 1
desc                             : Horizon follows the astronomers pushing the limits of science and engineering with a new generation of super-telescopes in the hunt for mysterious objects in the universe.
tvnn                             : BBC HD
tvsh                             : Horizon
tven                             : b013pnv4
catg                             : Factual,Science & Nature
tves                             : 2

Video
ID                               : 1
Format                           : AVC
Format/Info                      : Advanced Video Codec
Format profile                   : High@L4.1
Format settings, CABAC           : Yes
Format settings, ReFrames        : 6 frames
Codec ID                         : avc1
Codec ID/Info                    : Advanced Video Coding
Duration                         : 59mn 15s
Bit rate mode                    : Variable
Bit rate                         : 2 457 Kbps
Maximum bit rate                 : 3 500 Kbps
Width                            : 1 280 pixels
Height                           : 720 pixels
Display aspect ratio             : 16:9
Frame rate mode                  : Constant
Frame rate                       : 25.000 fps
Standard                         : PAL
Color space                      : YUV
Chroma subsampling               : 4:2:0
Bit depth                        : 8 bits
Scan type                        : Progressive
Bits/(Pixel*Frame)               : 0.107
Stream size                      : 1.02 GiB (96%)

Audio
ID                               : 2
Format                           : AAC
Format/Info                      : Advanced Audio Codec
Format profile                   : HE-AAC / LC
Codec ID                         : 40
Duration                         : 59mn 15s
Bit rate mode                    : Constant
Bit rate                         : 96.0 Kbps
Channel(s)                       : 2 channels
Channel positions                : Front: L R
Sampling rate                    : 48.0 KHz / 24.0 KHz
Compression mode                 : Lossy
Stream size                      : 40.1 MiB (4%)
